<svg width="80" height="80" viewBox="0 0 80 80" fill="none" xmlns="http://www.w3.org/2000/svg">
<mask id="mask0_6682_54958" style="mask-type:alpha" maskUnits="userSpaceOnUse" x="0" y="0" width="80" height="80">
<rect width="80" height="80" fill="#D9D9D9"/>
</mask>
<g mask="url(#mask0_6682_54958)">
<path d="M35.95 51.25L50.575 41.875C51.275 41.425 51.625 40.8 51.625 40C51.625 39.2 51.275 38.575 50.575 38.125L35.95 28.75C35.2 28.25 34.4375 28.2125 33.6625 28.6375C32.8875 29.0625 32.5 29.725 32.5 30.625V49.375C32.5 50.275 32.8875 50.9375 33.6625 51.3625C34.4375 51.7875 35.2 51.75 35.95 51.25ZM40 70C35.85 70 31.95 69.2125 28.3 67.6375C24.65 66.0625 21.475 63.925 18.775 61.225C16.075 58.525 13.9375 55.35 12.3625 51.7C10.7875 48.05 10 44.15 10 40C10 35.85 10.7875 31.95 12.3625 28.3C13.9375 24.65 16.075 21.475 18.775 18.775C21.475 16.075 24.65 13.9375 28.3 12.3625C31.95 10.7875 35.85 10 40 10C44.15 10 48.05 10.7875 51.7 12.3625C55.35 13.9375 58.525 16.075 61.225 18.775C63.925 21.475 66.0625 24.65 67.6375 28.3C69.2125 31.95 70 35.85 70 40C70 44.15 69.2125 48.05 67.6375 51.7C66.0625 55.35 63.925 58.525 61.225 61.225C58.525 63.925 55.35 66.0625 51.7 67.6375C48.05 69.2125 44.15 70 40 70Z" fill="white"/>
</g>
</svg>
