<svg width="150" height="22" viewBox="0 0 150 22" fill="none" xmlns="http://www.w3.org/2000/svg">
<g clip-path="url(#clip0_109_95)">
<path d="M21.2008 1.78323L18.212 6.96938L19.2433 8.75789L24.2844 0H14.197L15.2284 1.78323H21.2008Z" fill="black"/>
<path d="M21.2008 1.78323L18.212 6.96938L19.2433 8.75789L24.2844 0H14.197L15.2284 1.78323H21.2008Z" fill="black"/>
<path d="M12.1395 3.57174L21.2008 19.299H15.2284L14.197 21.0875H24.2844L12.1395 0L0 21.0875H12.1395L15.9493 14.4716L14.9232 12.6831L11.1135 19.299H3.08356L12.1395 3.57174Z" fill="black"/>
<path d="M12.1396 12.5354C12.9998 12.5354 13.6972 11.8362 13.6972 10.9738C13.6972 10.1113 12.9998 9.41211 12.1396 9.41211C11.2794 9.41211 10.582 10.1113 10.582 10.9738C10.582 11.8362 11.2794 12.5354 12.1396 12.5354Z" fill="black"/>
<path d="M75.4264 1.23975H73.4531V15.0783H75.4264V1.23975Z" fill="black"/>
<path d="M66.1547 1.74634C63.4342 1.74634 61.2241 3.95692 61.2241 6.6898C61.2241 9.42269 63.4342 11.6333 66.1547 11.6333C68.8751 11.6333 71.0852 9.42269 71.0852 6.6898C71.0852 3.95692 68.8751 1.74634 66.1547 1.74634ZM66.1547 9.78672C64.6076 9.78672 63.35 8.39917 63.35 6.68452C63.35 4.96988 64.6024 3.58233 66.1547 3.58233C67.707 3.58233 68.9593 4.96988 68.9593 6.68452C68.9593 8.39917 67.707 9.78672 66.1547 9.78672Z" fill="black"/>
<path d="M65.6601 17.4525V13.1052H63.6921V17.7216L64.6761 19.431H75.8212V17.4525H65.6601Z" fill="black"/>
<path d="M25.2158 12.5247H27.5837L31.1356 6.39418L34.6823 12.5247H37.0502L31.1356 2.23682L25.2158 12.5247Z" fill="black"/>
<path d="M40.2074 1.23975H38.2341V19.8265H40.2074V1.23975Z" fill="black"/>
<path d="M93.2908 1.23975V6.7741H90.9228V1.23975H88.9548V19.8265H90.9228V8.75254H93.2908V19.8265H95.264V1.23975H93.2908Z" fill="black"/>
<path d="M84.4243 5.9299V4.21526H87.3869V2.23682H79.4833V4.21526H82.4511V5.9299L78.6519 12.5194H80.9303L83.4351 8.17214L85.9398 12.5194H88.2183L84.4243 5.9299Z" fill="black"/>
<path d="M56.4146 1.23975V6.7741H54.0887V1.23975H52.1155V10.5358H45.0117V4.20477H50.5526V2.22633H43.0437V10.7996L44.0277 12.5089H52.1155V19.8265H54.0887V8.75254H56.4146V19.8265H58.3878V1.23975H56.4146Z" fill="black"/>
<path d="M101.51 2.5376H103.878V16.1387H110.919V18.191H101.516V2.5376H101.51Z" fill="#A7A19F"/>
<path d="M113.344 2.5376H123.116V4.5899H115.712V9.3276H122.6V11.3588H115.712V16.1387H123.2V18.191H113.344V2.5376Z" fill="#A7A19F"/>
<path d="M126.021 2.5376H135.793V4.5899H128.389V9.3276H135.277V11.3588H128.389V16.1387H135.877V18.191H126.021V2.5376Z" fill="#A7A19F"/>
<path d="M137.924 2.5376H150V4.5899H145.159V18.191H142.791V4.59518H137.929V2.54287L137.924 2.5376Z" fill="#A7A19F"/>
</g>
<defs>
<clipPath id="clip0_109_95">
<rect width="150" height="21.0875" fill="white"/>
</clipPath>
</defs>
</svg>
