<?xml version="1.0" encoding="utf-8"?>
<!-- Generator: Adobe Illustrator 24.1.3, SVG Export Plug-In . SVG Version: 6.00 Build 0)  -->
<svg version="1.1" id="Layer_1" xmlns="http://www.w3.org/2000/svg" xmlns:xlink="http://www.w3.org/1999/xlink" x="0px" y="0px"
	 viewBox="0 0 92 20" style="enable-background:new 0 0 92 20;" xml:space="preserve">
<style type="text/css">
	.st0{fill-rule:evenodd;clip-rule:evenodd;fill:#FFFFFF;}
</style>
<g id="object_x2F_object_x5F_review_x5F_5stars_x5F_masked">
	<path id="Combined-Shape" class="st0" d="M92,0v20H0V0H92z M10,2L7.4,7.4L1.4,8.2l4.3,4.2l-1,5.9l5.3-2.8l5.3,2.8l-1-5.9l4.3-4.2
		l-5.9-0.9L10,2z M28,2l-2.6,5.4l-5.9,0.9l4.3,4.2l-1,5.9l5.3-2.8l5.3,2.8l-1-5.9l4.3-4.2l-5.9-0.9L28,2z M46,2l-2.6,5.4l-5.9,0.9
		l4.3,4.2l-1,5.9l5.3-2.8l5.3,2.8l-1-5.9l4.3-4.2l-5.9-0.9L46,2z M64,2l-2.6,5.4l-5.9,0.9l4.3,4.2l-1,5.9l5.3-2.8l5.3,2.8l-1-5.9
		l4.3-4.2l-5.9-0.9L64,2z M82,2l-2.6,5.4l-5.9,0.9l4.3,4.2l-1,5.9l5.3-2.8l5.3,2.8l-1-5.9l4.3-4.2l-5.9-0.9L82,2z"/>
</g>
<g id="object_x2F_object_x5F_review_x5F_5stars_x5F_masked_1_">
	<path id="Combined-Shape_1_" class="st0" d="M92,0v20H0V0H92z M10,2L7.4,7.4L1.4,8.2l4.3,4.2l-1,5.9l5.3-2.8l5.3,2.8l-1-5.9
		l4.3-4.2l-5.9-0.9L10,2z M28,2l-2.6,5.4l-5.9,0.9l4.3,4.2l-1,5.9l5.3-2.8l5.3,2.8l-1-5.9l4.3-4.2l-5.9-0.9L28,2z M46,2l-2.6,5.4
		l-5.9,0.9l4.3,4.2l-1,5.9l5.3-2.8l5.3,2.8l-1-5.9l4.3-4.2l-5.9-0.9L46,2z M64,2l-2.6,5.4l-5.9,0.9l4.3,4.2l-1,5.9l5.3-2.8l5.3,2.8
		l-1-5.9l4.3-4.2l-5.9-0.9L64,2z M82,2l-2.6,5.4l-5.9,0.9l4.3,4.2l-1,5.9l5.3-2.8l5.3,2.8l-1-5.9l4.3-4.2l-5.9-0.9L82,2z"/>
</g>
</svg>
