<svg width="48" height="48" viewBox="0 0 48 48" fill="none" xmlns="http://www.w3.org/2000/svg">
<mask id="mask0_4636_71603" style="mask-type:alpha" maskUnits="userSpaceOnUse" x="0" y="0" width="48" height="48">
<rect width="48" height="48" fill="#D9D9D9"/>
</mask>
<g mask="url(#mask0_4636_71603)">
<path d="M21.7725 30.1875L29.8163 25.0313C30.2013 24.7838 30.3938 24.44 30.3938 24C30.3938 23.56 30.2013 23.2163 29.8163 22.9688L21.7725 17.8125C21.36 17.5375 20.9406 17.5169 20.5144 17.7506C20.0881 17.9844 19.875 18.3488 19.875 18.8438V29.1563C19.875 29.6513 20.0881 30.0156 20.5144 30.2494C20.9406 30.4831 21.36 30.4625 21.7725 30.1875ZM24 40.5C21.7175 40.5 19.5725 40.0669 17.565 39.2006C15.5575 38.3344 13.8113 37.1588 12.3263 35.6738C10.8412 34.1888 9.66563 32.4425 8.79938 30.435C7.93312 28.4275 7.5 26.2825 7.5 24C7.5 21.7175 7.93312 19.5725 8.79938 17.565C9.66563 15.5575 10.8412 13.8113 12.3263 12.3263C13.8113 10.8412 15.5575 9.66563 17.565 8.79938C19.5725 7.93312 21.7175 7.5 24 7.5C26.2825 7.5 28.4275 7.93312 30.435 8.79938C32.4425 9.66563 34.1888 10.8412 35.6738 12.3263C37.1588 13.8113 38.3344 15.5575 39.2006 17.565C40.0669 19.5725 40.5 21.7175 40.5 24C40.5 26.2825 40.0669 28.4275 39.2006 30.435C38.3344 32.4425 37.1588 34.1888 35.6738 35.6738C34.1888 37.1588 32.4425 38.3344 30.435 39.2006C28.4275 40.0669 26.2825 40.5 24 40.5Z" fill="white"/>
</g>
</svg>
