<svg width="16" height="11" viewBox="0 0 16 11" fill="none" xmlns="http://www.w3.org/2000/svg">
<path d="M5.54976 9.88112L14.3518 1.07912C14.4491 0.981786 14.5638 0.929868 14.696 0.923368C14.828 0.917035 14.9491 0.968952 15.0593 1.07912C15.1696 1.18945 15.2248 1.30837 15.2248 1.43587C15.2248 1.56353 15.1696 1.68245 15.0593 1.79262L6.11526 10.7426C5.9536 10.9041 5.7651 10.9849 5.54976 10.9849C5.33443 10.9849 5.14593 10.9041 4.98426 10.7426L0.934265 6.69262C0.836931 6.59529 0.786015 6.47962 0.781515 6.34562C0.777015 6.21162 0.829931 6.08945 0.940264 5.97912C1.05043 5.86895 1.16926 5.81387 1.29676 5.81387C1.42443 5.81387 1.54335 5.86895 1.65351 5.97912L5.54976 9.88112Z" fill="#2C2923"/>
</svg>
