<svg width="146" height="20" viewBox="0 0 146 20" fill="none" xmlns="http://www.w3.org/2000/svg">
<g clip-path="url(#clip0_4389_48508)">
<path d="M20.6507 1.69127L17.8086 6.60996L18.7893 8.30623L23.5829 0H13.9907L14.9715 1.69127H20.6507Z" fill="#2C2923"/>
<path d="M20.6507 1.69127L17.8086 6.60996L18.7893 8.30623L23.5829 0H13.9907L14.9715 1.69127H20.6507Z" fill="#2C2923"/>
<path d="M12.0344 3.38754L20.6508 18.3037H14.9716L13.9908 20H23.583L12.0344 0L0.490723 20H12.0344L15.6571 13.7253L14.6814 12.029L11.0586 18.3037H3.42292L12.0344 3.38754Z" fill="#2C2923"/>
<path d="M12.0343 11.889C12.8523 11.889 13.5154 11.2259 13.5154 10.4079C13.5154 9.58987 12.8523 8.92676 12.0343 8.92676C11.2163 8.92676 10.5532 9.58987 10.5532 10.4079C10.5532 11.2259 11.2163 11.889 12.0343 11.889Z" fill="#2C2923"/>
<path d="M72.2148 1.17578H70.3384V14.3006H72.2148V1.17578Z" fill="#2C2923"/>
<path d="M63.398 1.65625C60.811 1.65625 58.7095 3.75282 58.7095 6.34477C58.7095 8.93671 60.811 11.0333 63.398 11.0333C65.9849 11.0333 68.0865 8.93671 68.0865 6.34477C68.0865 3.75282 65.9849 1.65625 63.398 1.65625ZM63.398 9.28197C61.9269 9.28197 60.731 7.96598 60.731 6.33976C60.731 4.71354 61.9219 3.39756 63.398 3.39756C64.8741 3.39756 66.065 4.71354 66.065 6.33976C66.065 7.96598 64.8741 9.28197 63.398 9.28197Z" fill="#2C2923"/>
<path d="M62.9276 16.5528V12.4297H61.0562V16.808L61.9919 18.4292H72.5898V16.5528H62.9276Z" fill="#2C2923"/>
<path d="M24.4688 11.8784H26.7204L30.098 6.06405L33.4705 11.8784H35.7222L30.098 2.12109L24.4688 11.8784Z" fill="#2C2923"/>
<path d="M38.7246 1.17578H36.8481V18.804H38.7246V1.17578Z" fill="#2C2923"/>
<path d="M89.2022 1.17578V6.42472H86.9505V1.17578H85.0791V18.804H86.9505V8.30113H89.2022V18.804H91.0786V1.17578H89.2022Z" fill="#2C2923"/>
<path d="M80.7709 5.62372V3.9975H83.588V2.12109H76.0723V3.9975H78.8944V5.62372L75.2817 11.8734H77.4484L79.8301 7.75032L82.2119 11.8734H84.3786L80.7709 5.62372Z" fill="#2C2923"/>
<path d="M54.1359 1.17578V6.42472H51.9243V1.17578H50.0479V9.99239H43.2928V3.98789H48.5617V2.11148H41.4214V10.2426L42.3571 11.8638H50.0479V18.804H51.9243V8.30113H54.1359V18.804H56.0123V1.17578H54.1359Z" fill="#2C2923"/>
<path d="M99.3999 2.40723H101.652V15.3069H108.347V17.2534H99.4049V2.40723H99.3999Z" fill="#A7A19F"/>
<path d="M110.658 2.40723H119.95V4.35369H112.91V8.84706H119.46V10.7735H112.91V15.3069H120.03V17.2534H110.658V2.40723Z" fill="#A7A19F"/>
<path d="M122.712 2.40723H132.004V4.35369H124.964V8.84706H131.514V10.7735H124.964V15.3069H132.084V17.2534H122.712V2.40723Z" fill="#A7A19F"/>
<path d="M134.031 2.40723H145.514V4.35369H140.911V17.2534H138.659V4.35869H134.036V2.41223L134.031 2.40723Z" fill="#A7A19F"/>
</g>
<defs>
<clipPath id="clip0_4389_48508">
<rect width="145.019" height="20" fill="white" transform="translate(0.490723)"/>
</clipPath>
</defs>
</svg>
