<svg width="80" height="80" viewBox="0 0 80 80" fill="none" xmlns="http://www.w3.org/2000/svg">
<mask id="mask0_4636_71600" style="mask-type:alpha" maskUnits="userSpaceOnUse" x="0" y="0" width="80" height="80">
<rect width="80" height="80" fill="#D9D9D9"/>
</mask>
<g mask="url(#mask0_4636_71600)">
<path d="M36.2875 50.3125L49.6938 41.7188C50.3354 41.3063 50.6563 40.7333 50.6563 40C50.6563 39.2667 50.3354 38.6938 49.6938 38.2812L36.2875 29.6875C35.6 29.2292 34.901 29.1948 34.1906 29.5844C33.4802 29.974 33.125 30.5813 33.125 31.4062V48.5938C33.125 49.4188 33.4802 50.026 34.1906 50.4156C34.901 50.8052 35.6 50.7708 36.2875 50.3125ZM40 67.5C36.1958 67.5 32.6208 66.7781 29.275 65.3344C25.9292 63.8906 23.0188 61.9313 20.5437 59.4563C18.0687 56.9813 16.1094 54.0708 14.6656 50.725C13.2219 47.3792 12.5 43.8042 12.5 40C12.5 36.1958 13.2219 32.6208 14.6656 29.275C16.1094 25.9292 18.0687 23.0188 20.5437 20.5437C23.0188 18.0687 25.9292 16.1094 29.275 14.6656C32.6208 13.2219 36.1958 12.5 40 12.5C43.8042 12.5 47.3792 13.2219 50.725 14.6656C54.0708 16.1094 56.9813 18.0687 59.4563 20.5437C61.9313 23.0188 63.8906 25.9292 65.3344 29.275C66.7781 32.6208 67.5 36.1958 67.5 40C67.5 43.8042 66.7781 47.3792 65.3344 50.725C63.8906 54.0708 61.9313 56.9813 59.4563 59.4563C56.9813 61.9313 54.0708 63.8906 50.725 65.3344C47.3792 66.7781 43.8042 67.5 40 67.5Z" fill="white"/>
</g>
</svg>
